<svg xmlns="http://www.w3.org/2000/svg" xmlns:xlink="http://www.w3.org/1999/xlink" width="2048" zoomAndPan="magnify" viewBox="0 0 1536 1535.999932" height="2048" preserveAspectRatio="xMidYMid meet" version="1.2"><g id="fcd66544e5"><rect x="0" width="1536" y="0" height="1535.999932" style="fill:#ffffff;fill-opacity:1;stroke:none;"/><rect x="0" width="1536" y="0" height="1535.999932" style="fill:#000000;fill-opacity:1;stroke:none;"/><path style="fill:none;stroke-width:98;stroke-linecap:butt;stroke-linejoin:miter;stroke:#5603ad;stroke-opacity:1;stroke-miterlimit:4;" d="M 502.06133 609.967601 L 502.06133 698.436896 C 502.06133 747.298634 541.668888 786.906192 590.530625 786.906192 L 711.372995 786.906192 C 766.600085 786.906192 811.372767 742.137649 811.372767 686.90642 L 811.372767 669.979052 C 811.372767 614.747823 766.600085 569.975142 711.372995 569.975142 L 148.999475 569.975142 C 93.772385 569.975142 48.999703 525.206599 48.999703 469.97537 L 48.999703 -0.0012083 " transform="matrix(-0.94383,0,0,-0.94383,1173.708341,1182.920735)"/><path style="fill:none;stroke-width:98;stroke-linecap:butt;stroke-linejoin:miter;stroke:#5603ad;stroke-opacity:1;stroke-miterlimit:4;" d="M 772.345712 639.02326 L 792.373698 639.02326 C 803.432756 639.02326 812.397546 630.05847 812.397546 618.999412 L 812.397546 123.998973 C 812.397546 82.577174 778.818902 48.99853 737.397103 48.99853 L 75.873413 48.99853 C 68.746281 48.99853 61.90887 51.829517 56.871866 56.870659 C 51.830724 61.911801 48.999738 68.745074 48.999738 75.872206 L 48.999738 102.745882 " transform="matrix(-0.943797,0,0,-0.943797,1174.675469,1238.146986)"/><path style="fill:none;stroke-width:98;stroke-linecap:butt;stroke-linejoin:miter;stroke:#ffffff;stroke-opacity:1;stroke-miterlimit:4;" d="M 194.757224 251.211634 L 106.001487 251.211634 C 74.517804 251.211634 48.998666 225.692496 48.998666 194.212955 L 48.998666 105.999826 C 48.998666 74.520285 74.517804 49.001146 106.001487 49.001146 L 265.25897 49.001146 C 296.738511 49.001146 322.257649 74.520285 322.257649 105.999826 L 322.257649 398.730561 C 322.257649 405.254282 324.850569 411.512912 329.460665 416.12715 C 334.074903 420.741388 340.333533 423.330166 346.857253 423.330166 L 371.461 423.330166 " transform="matrix(-0.943073,0,0,-0.943073,968.611655,1085.567119)"/></g></svg>